<svg width="33" height="32" viewBox="0 0 33 32" fill="none" xmlns="http://www.w3.org/2000/svg">
<path d="M29.5631 15.9676C29.559 19.1382 28.3957 22.198 26.2923 24.5705C24.1888 26.9429 21.2905 28.4644 18.1431 28.8482C18.073 28.8562 18.0021 28.8492 17.9349 28.8277C17.8677 28.8062 17.8059 28.7707 17.7534 28.7235C17.701 28.6764 17.6591 28.6187 17.6306 28.5541C17.6021 28.4896 17.5876 28.4198 17.588 28.3493V18.9613H20.5818C20.7186 18.9616 20.854 18.9338 20.9796 18.8796C21.1052 18.8253 21.2183 18.7459 21.3119 18.6461C21.4055 18.5463 21.4775 18.4283 21.5236 18.2995C21.5697 18.1707 21.5888 18.0338 21.5797 17.8973C21.5577 17.6407 21.4393 17.4019 21.2484 17.2291C21.0574 17.0562 20.8081 16.962 20.5506 16.9655H17.588V13.9717C17.588 13.4424 17.7983 12.9348 18.1726 12.5605C18.5469 12.1862 19.0545 11.9759 19.5839 11.9759H21.5797C21.7165 11.9762 21.8519 11.9484 21.9775 11.8941C22.1031 11.8399 22.2162 11.7604 22.3098 11.6606C22.4034 11.5608 22.4754 11.4429 22.5215 11.3141C22.5676 11.1853 22.5867 11.0484 22.5776 10.9119C22.5556 10.6548 22.4368 10.4157 22.2454 10.2428C22.0539 10.0698 21.804 9.97594 21.546 9.98005H19.5839C18.5252 9.98005 17.5099 10.4006 16.7613 11.1492C16.0127 11.8978 15.5922 12.9131 15.5922 13.9717V16.9655H12.5984C12.4616 16.9652 12.3262 16.993 12.2006 17.0473C12.075 17.1015 11.9619 17.181 11.8683 17.2808C11.7748 17.3805 11.7027 17.4985 11.6566 17.6273C11.6105 17.7561 11.5914 17.893 11.6005 18.0295C11.6226 18.2866 11.7413 18.5257 11.9328 18.6986C12.1242 18.8716 12.3741 18.9654 12.6321 18.9613H15.5922V28.3518C15.5926 28.4222 15.5781 28.4919 15.5497 28.5563C15.5213 28.6207 15.4795 28.6784 15.4272 28.7255C15.3749 28.7726 15.3132 28.8082 15.2462 28.8297C15.1792 28.8513 15.1083 28.8585 15.0383 28.8507C11.8068 28.4572 8.8407 26.8648 6.72724 24.3886C4.61378 21.9125 3.50697 18.7331 3.62586 15.4798C3.87534 8.74387 9.33148 3.26778 16.0724 3.00583C17.8177 2.93823 19.5586 3.22331 21.1911 3.84404C22.8236 4.46476 24.3142 5.40837 25.5736 6.61842C26.833 7.82847 27.8355 9.28011 28.5209 10.8865C29.2064 12.4929 29.5609 14.221 29.5631 15.9676Z" fill="white"/>
</svg>