<svg width="33" height="32" viewBox="0 0 33 32" fill="none" xmlns="http://www.w3.org/2000/svg">
<path d="M19.4336 18.1169L22.3026 19.5489C22.1666 20.2285 21.7991 20.8398 21.2627 21.2786C20.7263 21.7174 20.0543 21.9565 19.3613 21.9552C16.9801 21.9525 14.6972 21.0055 13.0135 19.3217C11.3297 17.638 10.3826 15.3551 10.38 12.9739C10.3798 12.2817 10.6194 11.6109 11.0581 11.0755C11.4969 10.5402 12.1075 10.1733 12.7862 10.0375L14.2182 12.9065L12.9995 14.7203C12.9085 14.8569 12.8525 15.0138 12.8366 15.1772C12.8207 15.3407 12.8454 15.5055 12.9085 15.6571C13.6225 17.354 14.9724 18.704 16.6694 19.418C16.8214 19.4838 16.9875 19.5108 17.1526 19.4964C17.3176 19.482 17.4765 19.4268 17.6149 19.3356L19.4336 18.1169ZM29.3405 15.9677C29.341 18.2074 28.7616 20.4091 27.6587 22.3585C26.5558 24.3079 24.967 25.9386 23.047 27.0918C21.1269 28.245 18.941 28.8814 16.702 28.9391C14.463 28.9969 12.2472 28.474 10.2702 27.4213L6.02281 28.8371C5.67115 28.9544 5.29377 28.9714 4.93298 28.8862C4.5722 28.8011 4.24225 28.6172 3.98013 28.355C3.718 28.0929 3.53406 27.763 3.44891 27.4022C3.36377 27.0414 3.38079 26.664 3.49807 26.3124L4.91387 22.065C3.98848 20.3251 3.47162 18.3973 3.40251 16.4279C3.33341 14.4585 3.71387 12.4992 4.51503 10.6988C5.31619 8.89838 6.51699 7.30413 8.02628 6.03708C9.53557 4.77003 11.3137 3.86347 13.2256 3.38621C15.1376 2.90895 17.1332 2.87354 19.0608 3.28266C20.9885 3.69179 22.7977 4.5347 24.351 5.74741C25.9043 6.96012 27.1609 8.51075 28.0254 10.2816C28.8899 12.0525 29.3397 13.997 29.3405 15.9677ZM24.3509 18.9614C24.351 18.776 24.2995 18.5943 24.2021 18.4365C24.1047 18.2787 23.9653 18.1512 23.7995 18.0683L19.8078 16.0724C19.6507 15.9941 19.4757 15.9587 19.3005 15.9696C19.1253 15.9806 18.9561 16.0376 18.8099 16.1348L16.9775 17.3573C16.1363 16.8948 15.4441 16.2026 14.9816 15.3614L16.2041 13.529C16.3014 13.3828 16.3583 13.2136 16.3693 13.0384C16.3802 12.8632 16.3448 12.6882 16.2665 12.5311L14.2706 8.53938C14.1879 8.37231 14.06 8.23176 13.9015 8.13366C13.743 8.03555 13.5602 7.9838 13.3737 7.98428C12.0504 7.98428 10.7813 8.50997 9.84556 9.44571C8.90983 10.3814 8.38414 11.6506 8.38414 12.9739C8.38744 15.8842 9.54501 18.6744 11.6029 20.7322C13.6608 22.7901 16.451 23.9477 19.3613 23.951C20.0165 23.951 20.6653 23.822 21.2707 23.5712C21.8761 23.3205 22.4261 22.9529 22.8895 22.4896C23.3528 22.0263 23.7203 21.4762 23.9711 20.8709C24.2218 20.2655 24.3509 19.6167 24.3509 18.9614Z" fill="white"/>
</svg>
