<svg width="33" height="32" viewBox="0 0 33 32" fill="none" xmlns="http://www.w3.org/2000/svg">
<path d="M22.1402 2.99219H10.1651C8.31309 2.99417 6.53746 3.73077 5.22787 5.04037C3.91827 6.34996 3.18167 8.12559 3.17969 9.97764V21.9527C3.18167 23.8047 3.91827 25.5804 5.22787 26.89C6.53746 28.1996 8.31309 28.9362 10.1651 28.9381H22.1402C23.9922 28.9362 25.7679 28.1996 27.0775 26.89C28.3871 25.5804 29.1237 23.8047 29.1256 21.9527V9.97764C29.1237 8.12559 28.3871 6.34996 27.0775 5.04037C25.7679 3.73077 23.9922 2.99417 22.1402 2.99219ZM16.1527 21.9527C14.9684 21.9527 13.8108 21.6015 12.8262 20.9436C11.8415 20.2857 11.0741 19.3506 10.6209 18.2565C10.1677 17.1624 10.0492 15.9585 10.2802 14.7971C10.5112 13.6356 11.0815 12.5687 11.9188 11.7313C12.7562 10.894 13.8231 10.3237 14.9846 10.0927C16.146 9.86165 17.3499 9.98023 18.444 10.4334C19.5381 10.8866 20.4732 11.654 21.1311 12.6387C21.789 13.6233 22.1402 14.7809 22.1402 15.9652C22.1385 17.5526 21.5072 19.0746 20.3847 20.1972C19.2621 21.3197 17.7401 21.951 16.1527 21.9527ZM23.6371 9.97764C23.341 9.97764 23.0516 9.88984 22.8054 9.72537C22.5593 9.56089 22.3674 9.3271 22.2541 9.05359C22.1408 8.78007 22.1112 8.47909 22.169 8.18873C22.2267 7.89836 22.3693 7.63164 22.5786 7.4223C22.788 7.21296 23.0547 7.07039 23.345 7.01263C23.6354 6.95488 23.9364 6.98452 24.2099 7.09782C24.4834 7.21111 24.7172 7.40297 24.8817 7.64913C25.0462 7.89529 25.134 8.1847 25.134 8.48075C25.134 8.87775 24.9762 9.25849 24.6955 9.53921C24.4148 9.81993 24.0341 9.97764 23.6371 9.97764ZM20.1443 15.9652C20.1443 16.7546 19.9102 17.5264 19.4716 18.1828C19.033 18.8393 18.4096 19.3509 17.6802 19.653C16.9508 19.9551 16.1482 20.0342 15.3739 19.8801C14.5996 19.7261 13.8884 19.346 13.3301 18.7877C12.7719 18.2295 12.3917 17.5182 12.2377 16.7439C12.0837 15.9696 12.1627 15.167 12.4648 14.4376C12.7669 13.7082 13.2786 13.0848 13.935 12.6462C14.5914 12.2076 15.3632 11.9735 16.1527 11.9735C17.2113 11.9735 18.2266 12.394 18.9752 13.1426C19.7238 13.8912 20.1443 14.9065 20.1443 15.9652Z" fill="white"/>
</svg>